<svg width="64" height="64" viewBox="0 0 64 64" fill="none" xmlns="http://www.w3.org/2000/svg">
<g clip-path="url(#clip0_3_11)">
<rect width="64" height="64" rx="18" fill="black"/>
<path d="M6 17.7796L31.4751 54.7688M6 17.7796L14.7796 9M6 17.7796H23.5591M57.5259 17.7796L31.4751 54.7688M57.5259 17.7796L48.7463 9M57.5259 17.7796H40.5425M31.4751 54.7688L23.5591 17.7796M31.4751 54.7688L40.5425 17.7796M14.7796 9L23.5591 17.7796M14.7796 9H31.763M48.7463 9H31.763M48.7463 9L40.5425 17.7796M23.5591 17.7796H31.763H40.5425M23.5591 17.7796L31.763 9M31.763 9L40.5425 17.7796" stroke="white" stroke-width="2.70454"/>
<path d="M6 17.7796L31.4751 54.7688M6 17.7796L14.7796 9M6 17.7796H23.5591M57.5259 17.7796L31.4751 54.7688M57.5259 17.7796L48.7463 9M57.5259 17.7796H40.5425M31.4751 54.7688L23.5591 17.7796M31.4751 54.7688L40.5425 17.7796M14.7796 9L23.5591 17.7796M14.7796 9H31.763M48.7463 9H31.763M48.7463 9L40.5425 17.7796M23.5591 17.7796H31.763H40.5425M23.5591 17.7796L31.763 9M31.763 9L40.5425 17.7796" stroke="url(#paint0_linear_3_11)" stroke-opacity="0.5" stroke-width="2.70454"/>
</g>
<defs>
<linearGradient id="paint0_linear_3_11" x1="3.69966" y1="6.22094" x2="57.4329" y2="60.0101" gradientUnits="userSpaceOnUse">
<stop stop-color="#3CFF00"/>
<stop offset="1" stop-color="#001305"/>
</linearGradient>
<clipPath id="clip0_3_11">
<rect width="64" height="64" fill="white"/>
</clipPath>
</defs>
</svg>
